<svg xmlns="http://www.w3.org/2000/svg" xmlns:xlink="http://www.w3.org/1999/xlink" width="2000" zoomAndPan="magnify" viewBox="0 0 1500 1499.999933" height="2000" preserveAspectRatio="xMidYMid meet" version="1.0"><defs><clipPath id="3fa123293e"><path d="M 367.203125 0 L 1500 0 L 1500 41.1875 L 367.203125 41.1875 Z M 367.203125 0 " clip-rule="nonzero"/></clipPath><clipPath id="691b702fbe"><path d="M 0.203125 0 L 1133 0 L 1133 41.1875 L 0.203125 41.1875 Z M 0.203125 0 " clip-rule="nonzero"/></clipPath><clipPath id="928cd70579"><rect x="0" width="1133" y="0" height="42"/></clipPath><clipPath id="79cf845b3e"><path d="M 0 41.453125 L 41.179688 41.453125 L 41.179688 1500 L 0 1500 Z M 0 41.453125 " clip-rule="nonzero"/></clipPath><clipPath id="b8dd8e05eb"><path d="M 0 0.453125 L 41.179688 0.453125 L 41.179688 1459 L 0 1459 Z M 0 0.453125 " clip-rule="nonzero"/></clipPath><clipPath id="4e0ca98469"><rect x="0" width="42" y="0" height="1459"/></clipPath><clipPath id="df202cd43b"><path d="M 1458.808594 41.183594 L 1499.996094 41.183594 L 1499.996094 1132.847656 L 1458.808594 1132.847656 Z M 1458.808594 41.183594 " clip-rule="nonzero"/></clipPath><clipPath id="9002ff1395"><path d="M 0.808594 0.183594 L 41.996094 0.183594 L 41.996094 1091.847656 L 0.808594 1091.847656 Z M 0.808594 0.183594 " clip-rule="nonzero"/></clipPath><clipPath id="e98c1cc165"><rect x="0" width="42" y="0" height="1092"/></clipPath><clipPath id="ef995e063d"><path d="M 41.1875 1458.8125 L 1458.8125 1458.8125 L 1458.8125 1500 L 41.1875 1500 Z M 41.1875 1458.8125 " clip-rule="nonzero"/></clipPath><clipPath id="9974e71aae"><path d="M 0.1875 0.8125 L 1417.8125 0.8125 L 1417.8125 42 L 0.1875 42 Z M 0.1875 0.8125 " clip-rule="nonzero"/></clipPath><clipPath id="54f3a937ff"><rect x="0" width="1418" y="0" height="42"/></clipPath><clipPath id="552babedb7"><path d="M 408.390625 364.703125 L 1458.8125 364.703125 L 1458.8125 405.890625 L 408.390625 405.890625 Z M 408.390625 364.703125 " clip-rule="nonzero"/></clipPath><clipPath id="6158c24d07"><path d="M 0.390625 0.703125 L 1050.8125 0.703125 L 1050.8125 41.890625 L 0.390625 41.890625 Z M 0.390625 0.703125 " clip-rule="nonzero"/></clipPath><clipPath id="05120a1c58"><rect x="0" width="1051" y="0" height="42"/></clipPath><clipPath id="6dce73ffdb"><path d="M 41.1875 1091.664062 L 1094.3125 1091.664062 L 1094.3125 1132.851562 L 41.1875 1132.851562 Z M 41.1875 1091.664062 " clip-rule="nonzero"/></clipPath><clipPath id="1ad1471af4"><path d="M 0.1875 0.664062 L 1053.3125 0.664062 L 1053.3125 41.851562 L 0.1875 41.851562 Z M 0.1875 0.664062 " clip-rule="nonzero"/></clipPath><clipPath id="754c0ab71c"><rect x="0" width="1054" y="0" height="42"/></clipPath><clipPath id="6092a2a112"><path d="M 1094.308594 724.433594 L 1135.496094 724.433594 L 1135.496094 1132.847656 L 1094.308594 1132.847656 Z M 1094.308594 724.433594 " clip-rule="nonzero"/></clipPath><clipPath id="d5962ce1f7"><path d="M 0.308594 0.433594 L 41.496094 0.433594 L 41.496094 408.847656 L 0.308594 408.847656 Z M 0.308594 0.433594 " clip-rule="nonzero"/></clipPath><clipPath id="6be40f01f8"><rect x="0" width="42" y="0" height="409"/></clipPath><clipPath id="65e4854ce6"><path d="M 367.199219 364.699219 L 408.386719 364.699219 L 408.386719 770.589844 L 367.199219 770.589844 Z M 367.199219 364.699219 " clip-rule="nonzero"/></clipPath><clipPath id="471abb9705"><path d="M 0.199219 0.699219 L 41.386719 0.699219 L 41.386719 406.589844 L 0.199219 406.589844 Z M 0.199219 0.699219 " clip-rule="nonzero"/></clipPath><clipPath id="b5965ab4ae"><rect x="0" width="42" y="0" height="407"/></clipPath><clipPath id="8e6cbd2718"><path d="M 408.390625 729.40625 L 675 729.40625 L 675 770.59375 L 408.390625 770.59375 Z M 408.390625 729.40625 " clip-rule="nonzero"/></clipPath><clipPath id="62d05c6b2a"><path d="M 0.390625 0.40625 L 267 0.40625 L 267 41.59375 L 0.390625 41.59375 Z M 0.390625 0.40625 " clip-rule="nonzero"/></clipPath><clipPath id="492016d502"><rect x="0" width="267" y="0" height="42"/></clipPath><clipPath id="88a8225d69"><path d="M 0 0 L 367.203125 0 L 367.203125 41.453125 L 0 41.453125 Z M 0 0 " clip-rule="nonzero"/></clipPath><clipPath id="cb67038d1b"><path d="M 0 0 L 367.203125 0 L 367.203125 41.453125 L 0 41.453125 Z M 0 0 " clip-rule="nonzero"/></clipPath><clipPath id="4cdf2eb0ed"><rect x="0" width="368" y="0" height="42"/></clipPath><clipPath id="c673647d3c"><path d="M 1458.808594 1132.847656 L 1499.996094 1132.847656 L 1499.996094 1499.996094 L 1458.808594 1499.996094 Z M 1458.808594 1132.847656 " clip-rule="nonzero"/></clipPath><clipPath id="fcce678e49"><path d="M 0.808594 0.847656 L 41.996094 0.847656 L 41.996094 367.996094 L 0.808594 367.996094 Z M 0.808594 0.847656 " clip-rule="nonzero"/></clipPath><clipPath id="d0b27521d6"><rect x="0" width="42" y="0" height="368"/></clipPath><clipPath id="3b45546797"><path d="M 0 0 L 150 0 L 150 150 L 0 150 Z M 0 0 " clip-rule="nonzero"/></clipPath><clipPath id="23d6bb170d"><rect x="0" width="150" y="0" height="150"/></clipPath><clipPath id="b6c2dde655"><path d="M 825 724.4375 L 1094.3125 724.4375 L 1094.3125 765.625 L 825 765.625 Z M 825 724.4375 " clip-rule="nonzero"/></clipPath><clipPath id="58a5e9c746"><path d="M 0 0.4375 L 269.3125 0.4375 L 269.3125 41.625 L 0 41.625 Z M 0 0.4375 " clip-rule="nonzero"/></clipPath><clipPath id="403190b35d"><rect x="0" width="270" y="0" height="42"/></clipPath></defs><g clip-path="url(#3fa123293e)"><g transform="matrix(1, 0, 0, 1, 367, 0.000000000000112861)"><g clip-path="url(#928cd70579)"><g clip-path="url(#691b702fbe)"><path fill="#000000" d="M 0.203125 0 L 1133.03125 0 L 1133.03125 41.1875 L 0.203125 41.1875 Z M 0.203125 0 " fill-opacity="1" fill-rule="nonzero"/></g></g></g></g><g clip-path="url(#79cf845b3e)"><g transform="matrix(1, 0, 0, 1, 0, 41)"><g clip-path="url(#4e0ca98469)"><g clip-path="url(#b8dd8e05eb)"><path fill="#000000" d="M 41.179688 0.453125 L 41.179688 1458.921875 L -0.0078125 1458.921875 L -0.0078125 0.453125 Z M 41.179688 0.453125 " fill-opacity="1" fill-rule="nonzero"/></g></g></g></g><g clip-path="url(#df202cd43b)"><g transform="matrix(1, 0, 0, 1, 1458, 41)"><g clip-path="url(#e98c1cc165)"><g clip-path="url(#9002ff1395)"><path fill="#000000" d="M 41.996094 0.183594 L 41.996094 1091.824219 L 0.808594 1091.824219 L 0.808594 0.183594 Z M 41.996094 0.183594 " fill-opacity="1" fill-rule="nonzero"/></g></g></g></g><g clip-path="url(#ef995e063d)"><g transform="matrix(1, 0, 0, 1, 41, 1458)"><g clip-path="url(#54f3a937ff)"><g clip-path="url(#9974e71aae)"><path fill="#000000" d="M 0.1875 0.8125 L 1417.789062 0.8125 L 1417.789062 42 L 0.1875 42 Z M 0.1875 0.8125 " fill-opacity="1" fill-rule="nonzero"/></g></g></g></g><g clip-path="url(#552babedb7)"><g transform="matrix(1, 0, 0, 1, 408, 364)"><g clip-path="url(#05120a1c58)"><g clip-path="url(#6158c24d07)"><path fill="#000000" d="M 0.390625 0.703125 L 1050.84375 0.703125 L 1050.84375 41.890625 L 0.390625 41.890625 Z M 0.390625 0.703125 " fill-opacity="1" fill-rule="nonzero"/></g></g></g></g><g clip-path="url(#6dce73ffdb)"><g transform="matrix(1, 0, 0, 1, 41, 1091)"><g clip-path="url(#754c0ab71c)"><g clip-path="url(#1ad1471af4)"><path fill="#000000" d="M 0.1875 0.664062 L 1053.375 0.664062 L 1053.375 41.851562 L 0.1875 41.851562 Z M 0.1875 0.664062 " fill-opacity="1" fill-rule="nonzero"/></g></g></g></g><g clip-path="url(#6092a2a112)"><g transform="matrix(1, 0, 0, 1, 1094, 724)"><g clip-path="url(#6be40f01f8)"><g clip-path="url(#d5962ce1f7)"><path fill="#000000" d="M 41.496094 0.433594 L 41.496094 408.773438 L 0.308594 408.773438 L 0.308594 0.433594 Z M 41.496094 0.433594 " fill-opacity="1" fill-rule="nonzero"/></g></g></g></g><g clip-path="url(#65e4854ce6)"><g transform="matrix(1, 0, 0, 1, 367, 364)"><g clip-path="url(#b5965ab4ae)"><g clip-path="url(#471abb9705)"><path fill="#000000" d="M 41.386719 0.699219 L 41.386719 406.625 L 0.199219 406.625 L 0.199219 0.699219 Z M 41.386719 0.699219 " fill-opacity="1" fill-rule="nonzero"/></g></g></g></g><g clip-path="url(#8e6cbd2718)"><g transform="matrix(1, 0, 0, 1, 408, 729)"><g clip-path="url(#492016d502)"><g clip-path="url(#62d05c6b2a)"><path fill="#000000" d="M 0.390625 0.40625 L 266.988281 0.40625 L 266.988281 41.59375 L 0.390625 41.59375 Z M 0.390625 0.40625 " fill-opacity="1" fill-rule="nonzero"/></g></g></g></g><g clip-path="url(#88a8225d69)"><g transform="matrix(1, 0, 0, 1, 0, 0.000000000000112861)"><g clip-path="url(#4cdf2eb0ed)"><g clip-path="url(#cb67038d1b)"><path fill="#06f512" d="M 0 0 L 367.246094 0 L 367.246094 41.453125 L 0 41.453125 Z M 0 0 " fill-opacity="1" fill-rule="nonzero"/></g></g></g></g><g clip-path="url(#c673647d3c)"><g transform="matrix(1, 0, 0, 1, 1458, 1132)"><g clip-path="url(#d0b27521d6)"><g clip-path="url(#fcce678e49)"><path fill="#06f512" d="M 41.996094 0.847656 L 41.996094 367.996094 L 0.808594 367.996094 L 0.808594 0.847656 Z M 41.996094 0.847656 " fill-opacity="1" fill-rule="nonzero"/></g></g></g></g><g transform="matrix(1, 0, 0, 1, 675, 675)"><g clip-path="url(#23d6bb170d)"><g clip-path="url(#3b45546797)"><rect x="-1005" width="2160" fill="#06f512" height="2159.999904" y="-1004.999985" fill-opacity="1"/></g></g></g><g clip-path="url(#b6c2dde655)"><g transform="matrix(1, 0, 0, 1, 825, 724)"><g clip-path="url(#403190b35d)"><g clip-path="url(#58a5e9c746)"><path fill="#000000" d="M 0 0.4375 L 269.328125 0.4375 L 269.328125 41.625 L 0 41.625 Z M 0 0.4375 " fill-opacity="1" fill-rule="nonzero"/></g></g></g></g></svg>