<svg xmlns="http://www.w3.org/2000/svg" xmlns:xlink="http://www.w3.org/1999/xlink" width="2000" zoomAndPan="magnify" viewBox="0 0 1500 1499.999933" height="2000" preserveAspectRatio="xMidYMid meet" version="1.0"><defs><clipPath id="c343f1be9f"><path d="M 367.203125 0 L 1500 0 L 1500 41.1875 L 367.203125 41.1875 Z M 367.203125 0 " clip-rule="nonzero"/></clipPath><clipPath id="096c6baead"><path d="M 0.203125 0 L 1133 0 L 1133 41.1875 L 0.203125 41.1875 Z M 0.203125 0 " clip-rule="nonzero"/></clipPath><clipPath id="71d3cd9081"><rect x="0" width="1133" y="0" height="42"/></clipPath><clipPath id="759f375f39"><path d="M 0 41.453125 L 41.179688 41.453125 L 41.179688 1500 L 0 1500 Z M 0 41.453125 " clip-rule="nonzero"/></clipPath><clipPath id="da6e4cbeed"><path d="M 0 0.453125 L 41.179688 0.453125 L 41.179688 1459 L 0 1459 Z M 0 0.453125 " clip-rule="nonzero"/></clipPath><clipPath id="a773ce7a9f"><rect x="0" width="42" y="0" height="1459"/></clipPath><clipPath id="7c5450a260"><path d="M 1458.808594 41.183594 L 1499.996094 41.183594 L 1499.996094 1132.847656 L 1458.808594 1132.847656 Z M 1458.808594 41.183594 " clip-rule="nonzero"/></clipPath><clipPath id="0020a385b4"><path d="M 0.808594 0.183594 L 41.996094 0.183594 L 41.996094 1091.847656 L 0.808594 1091.847656 Z M 0.808594 0.183594 " clip-rule="nonzero"/></clipPath><clipPath id="c258df22e5"><rect x="0" width="42" y="0" height="1092"/></clipPath><clipPath id="c7dea7cedc"><path d="M 41.1875 1458.8125 L 1458.8125 1458.8125 L 1458.8125 1500 L 41.1875 1500 Z M 41.1875 1458.8125 " clip-rule="nonzero"/></clipPath><clipPath id="099fa334a7"><path d="M 0.1875 0.8125 L 1417.8125 0.8125 L 1417.8125 42 L 0.1875 42 Z M 0.1875 0.8125 " clip-rule="nonzero"/></clipPath><clipPath id="1294981aa4"><rect x="0" width="1418" y="0" height="42"/></clipPath><clipPath id="6826123ab8"><path d="M 408.390625 364.703125 L 1458.8125 364.703125 L 1458.8125 405.890625 L 408.390625 405.890625 Z M 408.390625 364.703125 " clip-rule="nonzero"/></clipPath><clipPath id="8e68ad7f0c"><path d="M 0.390625 0.703125 L 1050.8125 0.703125 L 1050.8125 41.890625 L 0.390625 41.890625 Z M 0.390625 0.703125 " clip-rule="nonzero"/></clipPath><clipPath id="520a0e3e35"><rect x="0" width="1051" y="0" height="42"/></clipPath><clipPath id="95eb27fe08"><path d="M 41.1875 1091.664062 L 1094.3125 1091.664062 L 1094.3125 1132.851562 L 41.1875 1132.851562 Z M 41.1875 1091.664062 " clip-rule="nonzero"/></clipPath><clipPath id="38e22d61ff"><path d="M 0.1875 0.664062 L 1053.3125 0.664062 L 1053.3125 41.851562 L 0.1875 41.851562 Z M 0.1875 0.664062 " clip-rule="nonzero"/></clipPath><clipPath id="00b4813bfe"><rect x="0" width="1054" y="0" height="42"/></clipPath><clipPath id="5b5381e4c5"><path d="M 1094.308594 724.433594 L 1135.496094 724.433594 L 1135.496094 1132.847656 L 1094.308594 1132.847656 Z M 1094.308594 724.433594 " clip-rule="nonzero"/></clipPath><clipPath id="b853d14f83"><path d="M 0.308594 0.433594 L 41.496094 0.433594 L 41.496094 408.847656 L 0.308594 408.847656 Z M 0.308594 0.433594 " clip-rule="nonzero"/></clipPath><clipPath id="931b0acf03"><rect x="0" width="42" y="0" height="409"/></clipPath><clipPath id="d305df8687"><path d="M 367.199219 364.699219 L 408.386719 364.699219 L 408.386719 770.589844 L 367.199219 770.589844 Z M 367.199219 364.699219 " clip-rule="nonzero"/></clipPath><clipPath id="b88ddfef9a"><path d="M 0.199219 0.699219 L 41.386719 0.699219 L 41.386719 406.589844 L 0.199219 406.589844 Z M 0.199219 0.699219 " clip-rule="nonzero"/></clipPath><clipPath id="5e736acdc7"><rect x="0" width="42" y="0" height="407"/></clipPath><clipPath id="2c5c63b373"><path d="M 408.390625 729.40625 L 675 729.40625 L 675 770.59375 L 408.390625 770.59375 Z M 408.390625 729.40625 " clip-rule="nonzero"/></clipPath><clipPath id="e56c7883bb"><path d="M 0.390625 0.40625 L 267 0.40625 L 267 41.59375 L 0.390625 41.59375 Z M 0.390625 0.40625 " clip-rule="nonzero"/></clipPath><clipPath id="677c8ad7f7"><rect x="0" width="267" y="0" height="42"/></clipPath><clipPath id="6325cd83db"><path d="M 0 0 L 367.203125 0 L 367.203125 41.453125 L 0 41.453125 Z M 0 0 " clip-rule="nonzero"/></clipPath><clipPath id="5a0fc6a392"><path d="M 0 0 L 367.203125 0 L 367.203125 41.453125 L 0 41.453125 Z M 0 0 " clip-rule="nonzero"/></clipPath><clipPath id="ab87ff263d"><rect x="0" width="368" y="0" height="42"/></clipPath><clipPath id="d13285cc73"><path d="M 1458.808594 1132.847656 L 1499.996094 1132.847656 L 1499.996094 1499.996094 L 1458.808594 1499.996094 Z M 1458.808594 1132.847656 " clip-rule="nonzero"/></clipPath><clipPath id="6b141c548c"><path d="M 0.808594 0.847656 L 41.996094 0.847656 L 41.996094 367.996094 L 0.808594 367.996094 Z M 0.808594 0.847656 " clip-rule="nonzero"/></clipPath><clipPath id="524961b566"><rect x="0" width="42" y="0" height="368"/></clipPath><clipPath id="24bef4e3cb"><path d="M 0 0 L 150 0 L 150 150 L 0 150 Z M 0 0 " clip-rule="nonzero"/></clipPath><clipPath id="41a5a58f12"><rect x="0" width="150" y="0" height="150"/></clipPath><clipPath id="683bdd9a38"><path d="M 825 724.4375 L 1094.3125 724.4375 L 1094.3125 765.625 L 825 765.625 Z M 825 724.4375 " clip-rule="nonzero"/></clipPath><clipPath id="f9e05ea2fe"><path d="M 0 0.4375 L 269.3125 0.4375 L 269.3125 41.625 L 0 41.625 Z M 0 0.4375 " clip-rule="nonzero"/></clipPath><clipPath id="35e43632a5"><rect x="0" width="270" y="0" height="42"/></clipPath></defs><g clip-path="url(#c343f1be9f)"><g transform="matrix(1, 0, 0, 1, 367, 0.000000000000112861)"><g clip-path="url(#71d3cd9081)"><g clip-path="url(#096c6baead)"><path fill="#ffffff" d="M 0.203125 0 L 1133.03125 0 L 1133.03125 41.1875 L 0.203125 41.1875 Z M 0.203125 0 " fill-opacity="1" fill-rule="nonzero"/></g></g></g></g><g clip-path="url(#759f375f39)"><g transform="matrix(1, 0, 0, 1, 0, 41)"><g clip-path="url(#a773ce7a9f)"><g clip-path="url(#da6e4cbeed)"><path fill="#ffffff" d="M 41.179688 0.453125 L 41.179688 1458.921875 L -0.0078125 1458.921875 L -0.0078125 0.453125 Z M 41.179688 0.453125 " fill-opacity="1" fill-rule="nonzero"/></g></g></g></g><g clip-path="url(#7c5450a260)"><g transform="matrix(1, 0, 0, 1, 1458, 41)"><g clip-path="url(#c258df22e5)"><g clip-path="url(#0020a385b4)"><path fill="#ffffff" d="M 41.996094 0.183594 L 41.996094 1091.824219 L 0.808594 1091.824219 L 0.808594 0.183594 Z M 41.996094 0.183594 " fill-opacity="1" fill-rule="nonzero"/></g></g></g></g><g clip-path="url(#c7dea7cedc)"><g transform="matrix(1, 0, 0, 1, 41, 1458)"><g clip-path="url(#1294981aa4)"><g clip-path="url(#099fa334a7)"><path fill="#ffffff" d="M 0.1875 0.8125 L 1417.789062 0.8125 L 1417.789062 42 L 0.1875 42 Z M 0.1875 0.8125 " fill-opacity="1" fill-rule="nonzero"/></g></g></g></g><g clip-path="url(#6826123ab8)"><g transform="matrix(1, 0, 0, 1, 408, 364)"><g clip-path="url(#520a0e3e35)"><g clip-path="url(#8e68ad7f0c)"><path fill="#ffffff" d="M 0.390625 0.703125 L 1050.84375 0.703125 L 1050.84375 41.890625 L 0.390625 41.890625 Z M 0.390625 0.703125 " fill-opacity="1" fill-rule="nonzero"/></g></g></g></g><g clip-path="url(#95eb27fe08)"><g transform="matrix(1, 0, 0, 1, 41, 1091)"><g clip-path="url(#00b4813bfe)"><g clip-path="url(#38e22d61ff)"><path fill="#ffffff" d="M 0.1875 0.664062 L 1053.375 0.664062 L 1053.375 41.851562 L 0.1875 41.851562 Z M 0.1875 0.664062 " fill-opacity="1" fill-rule="nonzero"/></g></g></g></g><g clip-path="url(#5b5381e4c5)"><g transform="matrix(1, 0, 0, 1, 1094, 724)"><g clip-path="url(#931b0acf03)"><g clip-path="url(#b853d14f83)"><path fill="#ffffff" d="M 41.496094 0.433594 L 41.496094 408.773438 L 0.308594 408.773438 L 0.308594 0.433594 Z M 41.496094 0.433594 " fill-opacity="1" fill-rule="nonzero"/></g></g></g></g><g clip-path="url(#d305df8687)"><g transform="matrix(1, 0, 0, 1, 367, 364)"><g clip-path="url(#5e736acdc7)"><g clip-path="url(#b88ddfef9a)"><path fill="#ffffff" d="M 41.386719 0.699219 L 41.386719 406.625 L 0.199219 406.625 L 0.199219 0.699219 Z M 41.386719 0.699219 " fill-opacity="1" fill-rule="nonzero"/></g></g></g></g><g clip-path="url(#2c5c63b373)"><g transform="matrix(1, 0, 0, 1, 408, 729)"><g clip-path="url(#677c8ad7f7)"><g clip-path="url(#e56c7883bb)"><path fill="#ffffff" d="M 0.390625 0.40625 L 266.988281 0.40625 L 266.988281 41.59375 L 0.390625 41.59375 Z M 0.390625 0.40625 " fill-opacity="1" fill-rule="nonzero"/></g></g></g></g><g clip-path="url(#6325cd83db)"><g transform="matrix(1, 0, 0, 1, 0, 0.000000000000112861)"><g clip-path="url(#ab87ff263d)"><g clip-path="url(#5a0fc6a392)"><path fill="#06f512" d="M 0 0 L 367.246094 0 L 367.246094 41.453125 L 0 41.453125 Z M 0 0 " fill-opacity="1" fill-rule="nonzero"/></g></g></g></g><g clip-path="url(#d13285cc73)"><g transform="matrix(1, 0, 0, 1, 1458, 1132)"><g clip-path="url(#524961b566)"><g clip-path="url(#6b141c548c)"><path fill="#06f512" d="M 41.996094 0.847656 L 41.996094 367.996094 L 0.808594 367.996094 L 0.808594 0.847656 Z M 41.996094 0.847656 " fill-opacity="1" fill-rule="nonzero"/></g></g></g></g><g transform="matrix(1, 0, 0, 1, 675, 675)"><g clip-path="url(#41a5a58f12)"><g clip-path="url(#24bef4e3cb)"><rect x="-1005" width="2160" fill="#06f512" height="2159.999904" y="-1004.999985" fill-opacity="1"/></g></g></g><g clip-path="url(#683bdd9a38)"><g transform="matrix(1, 0, 0, 1, 825, 724)"><g clip-path="url(#35e43632a5)"><g clip-path="url(#f9e05ea2fe)"><path fill="#ffffff" d="M 0 0.4375 L 269.328125 0.4375 L 269.328125 41.625 L 0 41.625 Z M 0 0.4375 " fill-opacity="1" fill-rule="nonzero"/></g></g></g></g></svg>